<svg width="24" height="24" viewBox="0 0 24 24" fill="none" xmlns="http://www.w3.org/2000/svg">
<g clip-path="url(#clip0_201_24)">
<path fill-rule="evenodd" clip-rule="evenodd" d="M23.0607 3.06066C23.6464 2.47487 23.6464 1.52513 23.0607 0.93934C22.4749 0.353553 21.5251 0.353553 20.9393 0.93934L12 9.87868L3.06066 0.93934C2.47487 0.353553 1.52513 0.353553 0.93934 0.93934C0.353553 1.52513 0.353553 2.47487 0.93934 3.06066L9.87868 12L0.93934 20.9393C0.353553 21.5251 0.353553 22.4749 0.93934 23.0607C1.52513 23.6464 2.47487 23.6464 3.06066 23.0607L12 14.1213L20.9393 23.0607C21.5251 23.6464 22.4749 23.6464 23.0607 23.0607C23.6464 22.4749 23.6464 21.5251 23.0607 20.9393L14.1213 12L23.0607 3.06066Z" fill="#222222"/>
</g>
<defs>
<clipPath id="clip0_201_24">
<rect width="24" height="24" fill="white"/>
</clipPath>
</defs>
</svg>
