<svg width="98" height="98" viewBox="0 0 98 98" fill="none" xmlns="http://www.w3.org/2000/svg">
<g clip-path="url(#clip0_1_299)">
<path d="M83.6482 14.3516C74.3933 5.09696 62.0884 0 49 0C35.9114 0 23.6063 5.09696 14.3516 14.3516C5.09677 23.6065 0 35.9116 0 49C0 62.0884 5.09677 74.3933 14.3516 83.6482C23.6065 92.903 35.9114 98 49 98C62.0884 98 74.3933 92.903 83.6482 83.6482C92.903 74.3933 98 62.0884 98 49C98 35.9116 92.903 23.6067 83.6482 14.3516ZM49 92.2578C25.1475 92.2578 5.74219 72.8525 5.74219 49C5.74219 25.1475 25.1475 5.74219 49 5.74219C72.8525 5.74219 92.2578 25.1475 92.2578 49C92.2578 72.8525 72.8525 92.2578 49 92.2578Z" fill="#28A772" fill-opacity="0.8"/>
<path d="M72.4097 33.2778C71.2886 32.1569 69.4706 32.1569 68.3496 33.2779L42.9961 58.6314L29.6499 45.2852C28.5288 44.1642 26.7109 44.1642 25.5896 45.2852C24.4683 46.4063 24.4683 48.2243 25.5896 49.3455L40.9658 64.7218C41.5265 65.2824 42.2613 65.5626 42.9959 65.5626C43.7305 65.5626 44.4655 65.2822 45.0259 64.7218L72.4097 37.3381C73.5309 36.217 73.5309 34.399 72.4097 33.2778Z" fill="#28A772" fill-opacity="0.8"/>
</g>
<defs>
<clipPath id="clip0_1_299">
<rect width="98" height="98" fill="white"/>
</clipPath>
</defs>
</svg>
